<?xml version="1.0" standalone="no"?>
<!DOCTYPE svg PUBLIC "-//W3C//DTD SVG 20010904//EN"
 "http://www.w3.org/TR/2001/REC-SVG-20010904/DTD/svg10.dtd">
<svg version="1.0" xmlns="http://www.w3.org/2000/svg"
 width="400.000000pt" height="300.000000pt" viewBox="0 0 400.000000 300.000000"
 preserveAspectRatio="xMidYMid meet">

<g transform="translate(0.000000,300.000000) scale(0.100000,-0.100000)"
fill="#000000" stroke="none">
<path d="M0 2365 l1 -636 97 3 97 3 6 -39 c8 -48 30 -66 81 -66 29 0 47 8 76
35 40 35 144 95 167 95 28 0 37 27 21 64 -8 20 -20 36 -25 36 -14 0 -14 27 -2
35 10 5 216 29 351 40 36 3 108 10 162 17 92 10 98 10 139 -11 39 -21 53 -22
175 -19 140 4 157 -1 134 -40 -5 -10 -10 -12 -10 -5 0 7 -7 10 -15 7 -23 -9
-7 -24 25 -24 28 0 28 1 18 33 -6 17 -12 46 -14 62 -4 23 0 18 15 -18 29 -72
36 -77 100 -76 40 0 50 3 36 9 -20 9 -20 9 1 9 11 1 25 -4 31 -10 9 -9 18 -12
52 -18 2 -1 -13 -17 -35 -37 -21 -19 -34 -33 -27 -30 6 4 15 1 18 -5 11 -17
-2 -22 -25 -9 -25 13 -47 1 -141 -82 -30 -26 -64 -56 -77 -67 -13 -11 -23 -23
-23 -28 1 -4 -3 -8 -9 -8 -5 0 -10 -3 -10 -7 0 -5 1 -25 1 -45 l2 -38 7 40 c6
35 8 37 15 18 13 -41 35 -28 32 19 -3 32 1 46 17 62 l21 21 3 -74 c2 -41 -1
-77 -5 -81 -4 -4 -50 -17 -100 -28 l-93 -20 0 73 0 73 -57 30 c-32 16 -71 36
-88 45 -40 21 -90 41 -151 61 -44 14 -69 15 -183 6 -145 -11 -133 -7 -410
-131 l-163 -73 -42 23 c-106 59 -186 101 -191 101 -3 0 -5 -76 -5 -170 l0
-169 42 15 c59 21 216 39 261 30 49 -9 46 -34 -6 -52 -45 -16 -180 -34 -249
-34 -57 0 -65 -20 -17 -41 l32 -13 -32 -28 -31 -28 0 -585 0 -585 1581 0
c1136 0 1578 3 1573 11 -4 8 0 8 15 0 16 -9 26 -8 46 5 14 9 28 14 32 10 3 -3
1 -6 -6 -6 -7 0 -10 -4 -7 -9 3 -4 23 -8 45 -8 28 0 41 4 44 16 4 14 5 14 6 0
1 -19 51 -22 63 -4 5 6 8 5 8 -2 0 -7 12 -13 26 -13 21 0 25 4 21 20 -7 26 10
26 18 1 5 -15 15 -20 45 -19 48 0 50 7 10 30 -17 9 -30 23 -30 30 0 10 2 10 9
0 7 -11 9 -11 14 2 3 8 2 18 -3 21 -6 4 -10 11 -10 18 0 6 6 2 14 -8 10 -14
11 -25 5 -37 -7 -14 -6 -18 6 -18 19 0 47 -25 38 -34 -3 -3 41 -5 98 -5 57 1
107 6 110 11 3 5 17 5 33 -2 15 -5 65 -10 112 -10 l84 0 0 1500 0 1500 -925 0
c-733 0 -925 -3 -925 -12 0 -9 -3 -9 -8 -2 -4 5 -16 10 -27 10 -16 0 -20 -7
-19 -31 1 -20 7 -31 18 -33 14 -3 13 -7 -9 -28 -15 -14 -25 -31 -22 -38 3 -8
-1 -13 -11 -12 -9 0 -18 -9 -22 -24 -4 -16 -12 -24 -23 -22 -13 2 -16 -4 -15
-23 1 -14 6 -25 10 -25 4 0 8 -4 8 -10 0 -5 -6 -7 -14 -4 -8 3 -17 1 -20 -5
-4 -6 -14 -7 -23 -4 -9 3 -21 0 -27 -8 -14 -18 -46 -24 -46 -8 0 21 -13 0 -16
-25 -2 -23 0 -25 34 -20 19 2 33 2 29 -2 -3 -3 2 -15 12 -26 14 -14 26 -17 45
-12 14 3 26 10 26 15 0 6 -8 5 -19 -1 -17 -8 -20 -7 -18 10 1 11 5 20 10 20 4
0 5 5 2 10 -8 13 35 13 55 0 12 -7 8 -10 -15 -10 -26 -1 -28 -2 -12 -11 10 -6
30 -8 45 -5 17 4 22 3 14 -2 -8 -6 -11 -20 -7 -40 3 -17 0 -34 -6 -38 -7 -4
-10 2 -8 17 6 41 -8 51 -42 33 -17 -8 -29 -18 -26 -21 10 -9 -15 -63 -29 -63
-8 0 -11 6 -8 15 4 8 10 15 14 15 4 0 10 6 13 14 8 21 -72 73 -84 54 -6 -9 -9
-10 -9 0 0 6 -9 12 -20 12 -11 0 -20 5 -20 11 0 5 -5 7 -10 4 -15 -10 -12 -23
8 -28 13 -4 13 -5 -4 -6 -14 -1 -24 6 -27 19 -3 11 -1 20 4 20 15 0 10 27 -6
34 -8 3 -22 3 -31 -1 -13 -5 -15 -2 -9 15 11 37 -2 24 -25 -24 -22 -44 -44
-63 -58 -50 -3 4 0 11 8 16 17 11 18 11 -37 14 -24 2 -43 -1 -43 -6 0 -4 11
-8 24 -8 28 0 43 -17 28 -32 -6 -6 -12 -6 -16 1 -4 6 -18 11 -30 11 -13 0 -35
11 -50 25 -27 25 -34 45 -16 45 6 0 10 -9 10 -20 0 -11 7 -20 16 -20 8 0 12 5
9 10 -3 6 3 10 15 10 12 0 18 5 15 10 -3 6 -1 10 4 10 6 0 11 4 11 9 0 6 -9 8
-20 6 -16 -3 -19 1 -17 25 2 25 5 28 25 23 18 -4 21 -2 16 13 -4 11 -13 24
-21 31 -12 10 -10 12 15 11 28 -1 30 -3 25 -28 -4 -24 -2 -27 19 -27 55 -1 64
-3 49 -12 -8 -5 -30 -8 -47 -5 -18 2 -43 0 -56 -5 -17 -7 -3 -9 50 -9 63 1 72
3 72 19 0 11 4 19 10 19 5 0 7 -8 3 -17 -4 -11 -2 -15 3 -10 9 9 13 76 4 75
-18 -1 -19 5 -5 26 8 13 13 30 10 39 -8 19 13 33 28 18 9 -9 8 -11 -6 -5 -13
5 -16 2 -11 -10 8 -20 20 -21 27 -1 4 9 18 13 41 11 30 -2 35 1 33 18 -2 16 4
21 25 21 15 1 25 -2 22 -6 -2 -4 3 -9 11 -13 22 -8 20 33 -3 50 -22 17 -35 17
-29 0 4 -10 0 -12 -14 -9 -10 3 -17 8 -15 12 8 12 -58 10 -72 -2 -12 -9 -16
-9 -19 1 -3 6 -15 12 -27 12 -12 0 -28 -6 -35 -12 -11 -10 -13 -10 -7 0 6 9
-170 12 -863 12 l-871 0 0 -635z m1867 619 c-3 -3 -12 -4 -19 -1 -8 3 -5 6 6
6 11 1 17 -2 13 -5z m273 -37 c0 -5 -4 -5 -10 -2 -5 3 -10 14 -10 23 0 15 2
15 10 2 5 -8 10 -19 10 -23z m-270 -7 c0 -4 -11 -10 -25 -12 -26 -5 -37 16
-12 25 15 5 37 -2 37 -13z m-183 -55 c-4 -8 -12 -15 -19 -14 -10 0 -10 2 0 6
6 2 12 12 12 21 0 8 3 13 6 9 4 -3 4 -13 1 -22z m68 -6 c-6 -29 -9 -31 -39
-23 -21 5 -24 9 -16 20 7 7 17 11 25 8 7 -3 16 -1 20 5 10 17 14 13 10 -10z
m370 -36 c5 -18 3 -22 -9 -17 -9 3 -16 18 -16 32 0 29 14 20 25 -15z m-385 -9
c0 -2 -12 -4 -26 -4 -14 0 -23 4 -20 9 6 8 46 4 46 -5z m369 -32 c-17 -7 -39
7 -39 23 0 14 3 14 24 -2 13 -10 20 -20 15 -21z m-399 2 c0 -2 -7 -4 -15 -4
-8 0 -15 4 -15 10 0 5 7 7 15 4 8 -4 15 -8 15 -10z m60 6 c0 -5 -10 -10 -22
-9 -22 0 -22 1 -3 9 11 5 21 9 23 9 1 1 2 -3 2 -9z m-1132 -36 c40 -9 71 -18
69 -20 -4 -5 -183 32 -202 41 -15 8 51 -3 133 -21z m1492 6 c0 -5 -7 -10 -16
-10 -8 0 -12 5 -9 10 3 6 10 10 16 10 5 0 9 -4 9 -10z m60 0 c0 -5 -5 -10 -11
-10 -5 0 -7 5 -4 10 3 6 8 10 11 10 2 0 4 -4 4 -10z m-1655 -10 c3 -5 -1 -10
-9 -10 -9 0 -16 5 -16 10 0 6 4 10 9 10 6 0 13 -4 16 -10z m1772 4 c-3 -3 -12
-4 -19 -1 -8 3 -5 6 6 6 11 1 17 -2 13 -5z m-717 -24 c12 -8 11 -10 -7 -10
-13 0 -23 5 -23 10 0 13 11 13 30 0z m467 -22 c-3 -7 -5 -2 -5 12 0 14 2 19 5
13 2 -7 2 -19 0 -25z m105 13 c4 -4 -1 -12 -11 -18 -16 -10 -20 -8 -30 13 -10
24 -10 25 11 19 13 -4 26 -10 30 -14z m45 13 c-3 -3 -12 -4 -19 -1 -8 3 -5 6
6 6 11 1 17 -2 13 -5z m-1650 -26 c-3 -8 -6 -5 -6 6 -1 11 2 17 5 13 3 -3 4
-12 1 -19z m200 16 c-3 -3 -12 -4 -19 -1 -8 3 -5 6 6 6 11 1 17 -2 13 -5z
m1453 -14 c13 -8 13 -10 -2 -10 -9 0 -20 5 -23 10 -8 13 5 13 25 0z m-220 -14
c0 -2 -7 -6 -15 -10 -8 -3 -15 -1 -15 4 0 6 7 10 15 10 8 0 15 -2 15 -4z m224
-27 c-3 -5 -10 -7 -15 -3 -5 3 -7 10 -3 15 3 5 10 7 15 3 5 -3 7 -10 3 -15z
m-67 -14 c-12 -25 -37 -35 -37 -15 0 15 23 39 37 40 8 0 8 -6 0 -25z m-1131
-32 c-6 -6 -179 28 -189 37 -5 4 37 -2 93 -13 55 -11 99 -22 96 -24z m794 32
c0 -8 -6 -15 -13 -15 -8 0 -14 7 -14 15 0 8 6 15 14 15 7 0 13 -7 13 -15z
m-918 -31 c67 -13 123 -31 157 -51 5 -4 31 -170 31 -200 0 -12 7 -66 14 -120
10 -73 11 -100 2 -106 -6 -4 -65 -6 -131 -5 l-120 3 -22 149 c-13 83 -28 153
-34 157 -6 4 -43 10 -83 13 -109 10 -156 18 -156 25 0 4 28 4 63 -1 172 -22
191 -22 184 -4 -4 10 -10 49 -13 87 -8 80 -15 77 108 53z m718 -33 c0 -13 2
-13 9 -2 5 8 14 10 21 6 10 -6 9 -10 -4 -17 -9 -5 -21 -6 -26 -3 -6 3 -10 1
-10 -5 0 -6 -4 -8 -10 -5 -6 4 -10 -6 -11 -22 0 -27 0 -28 -10 -5 -10 27 -4
42 17 42 8 0 14 7 14 15 0 8 -4 15 -10 15 -5 0 -10 5 -10 11 0 8 5 8 15 -1 8
-7 15 -20 15 -29z m144 26 c-3 -8 -19 -14 -37 -14 l-32 -1 35 13 c19 8 36 14
37 14 1 1 0 -5 -3 -12z m31 4 c-3 -5 3 -12 12 -14 14 -4 13 -5 -4 -6 -14 -1
-23 5 -23 14 0 8 5 15 11 15 5 0 8 -4 4 -9z m-728 -7 c-3 -3 -12 -4 -19 -1 -8
3 -5 6 6 6 11 1 17 -2 13 -5z m873 -4 c0 -5 -8 -10 -17 -10 -15 0 -16 2 -3 10
19 12 20 12 20 0z m-1486 -27 c7 -25 54 -337 60 -403 3 -30 3 -47 0 -37 -4 13
-11 16 -27 11 -24 -7 -38 -24 -31 -36 3 -4 -3 -8 -14 -8 -10 0 -32 -7 -48 -15
-30 -14 -74 -11 -74 7 0 5 -6 8 -12 7 -49 -8 -82 55 -98 182 l-11 96 36 78
c20 43 37 87 38 97 1 13 10 18 37 19 l35 1 -30 8 c-22 6 -7 8 52 9 70 1 82 -2
87 -16z m1238 -5 c-20 -20 -13 -28 14 -17 33 12 37 8 25 -22 -8 -18 -10 -20
-10 -6 -1 11 -8 18 -18 16 -42 -4 -47 0 -28 21 10 11 21 20 24 20 3 0 0 -5 -7
-12z m173 0 c5 4 5 1 1 -5 -10 -18 -33 -16 -33 2 0 10 4 12 12 5 7 -5 16 -6
20 -2z m28 -3 c-3 -9 -8 -14 -10 -11 -3 3 -2 9 2 15 9 16 15 13 8 -4z m-393 1
c0 -3 -4 -8 -10 -11 -5 -3 -10 -1 -10 4 0 6 5 11 10 11 6 0 10 -2 10 -4z m60
-24 c0 -15 -2 -15 -10 -2 -13 20 -13 33 0 25 6 -3 10 -14 10 -23z m227 6 c-3
-8 -6 -5 -6 6 -1 11 2 17 5 13 3 -3 4 -12 1 -19z m413 8 c0 -2 -15 -6 -34 -8
-19 -2 -32 0 -30 4 5 8 64 12 64 4z m-570 -26 c0 -5 -7 -10 -15 -10 -8 0 -15
5 -15 10 0 6 7 10 15 10 8 0 15 -4 15 -10z m310 -6 c0 -2 -9 -4 -21 -4 -11 0
-18 4 -14 10 5 8 35 3 35 -6z m280 6 c0 -5 -2 -10 -4 -10 -3 0 -8 5 -11 10 -3
6 -1 10 4 10 6 0 11 -4 11 -10z m-755 -22 c6 -4 2 -8 -7 -8 -10 0 -18 7 -18
17 0 9 3 12 8 7 4 -5 12 -12 17 -16z m668 2 c3 -11 1 -20 -4 -20 -5 0 -9 9 -9
20 0 11 2 20 4 20 2 0 6 -9 9 -20z m41 -2 c-3 -4 -9 -8 -15 -8 -5 0 -9 4 -9 8
0 5 7 9 15 9 8 0 12 -4 9 -9z m-631 -23 c-7 -19 -19 -19 -26 -1 -3 8 -1 17 6
19 18 6 27 -2 20 -18z m467 15 c-19 -13 -30 -13 -30 0 0 6 10 10 23 10 18 0
19 -2 7 -10z m89 -6 c6 4 11 2 11 -3 0 -6 -5 -11 -11 -11 -5 0 -8 -4 -5 -9 4
-5 -3 -7 -14 -4 -23 6 -22 5 -14 28 5 12 9 13 14 5 4 -7 13 -9 19 -6z m-709
-8 c0 -3 -4 -8 -10 -11 -5 -3 -10 -1 -10 4 0 6 5 11 10 11 6 0 10 -2 10 -4z
m390 -34 c0 -15 -4 -32 -8 -39 -4 -7 -7 8 -7 32 0 23 3 41 8 38 4 -2 7 -16 7
-31z m267 9 c2 -14 -1 -21 -9 -19 -6 2 -13 14 -15 27 -2 14 1 21 9 19 6 -2 13
-14 15 -27z m-583 -12 c-6 -11 -24 -2 -24 11 0 5 7 7 15 4 8 -4 12 -10 9 -15z
m152 -6 c-10 -10 -19 5 -10 18 6 11 8 11 12 0 2 -7 1 -15 -2 -18z m544 7 c0
-5 -2 -10 -4 -10 -3 0 -8 5 -11 10 -3 6 -1 10 4 10 6 0 11 -4 11 -10z m-1451
-10 c14 0 20 -21 34 -122 10 -68 17 -129 17 -135 0 -14 -90 -19 -90 -5 0 4 -9
61 -20 127 -26 157 -26 149 11 141 17 -3 39 -6 48 -6z m1301 6 c0 -3 -4 -8
-10 -11 -5 -3 -10 -1 -10 4 0 6 5 11 10 11 6 0 10 -2 10 -4z m187 -33 c-3 -10
-5 -4 -5 12 0 17 2 24 5 18 2 -7 2 -21 0 -30z m-220 11 c-3 -3 -12 -4 -19 -1
-8 3 -5 6 6 6 11 1 17 -2 13 -5z m-330 -26 c-3 -8 -6 -5 -6 6 -1 11 2 17 5 13
3 -3 4 -12 1 -19z m503 2 c11 -11 15 -20 9 -20 -5 0 -7 -4 -4 -10 3 -5 -1 -10
-9 -10 -10 0 -13 6 -10 15 7 18 0 19 -27 5 -11 -6 -19 -7 -19 -2 0 6 9 12 21
15 12 3 18 10 14 16 -10 18 4 12 25 -9z m-790 0 c0 -5 -4 -10 -10 -10 -5 0
-10 5 -10 10 0 6 5 10 10 10 6 0 10 -4 10 -10z m101 -40 c5 0 9 -8 8 -17 0
-10 -3 -13 -5 -6 -3 7 -11 11 -17 9 -7 -1 -9 -1 -6 1 3 2 5 16 4 31 -2 19 -1
20 2 5 2 -13 9 -23 14 -23z m-63 15 c-2 -17 -8 -25 -20 -25 -10 0 -18 -6 -18
-12 0 -9 -4 -8 -10 2 -15 22 -12 29 9 23 13 -3 21 2 26 16 9 28 15 26 13 -4z
m1555 1 c5 6 61 8 107 5 6 -1 15 -11 21 -24 10 -23 59 -37 59 -17 0 6 -12 10
-27 10 -21 0 -24 3 -15 12 9 9 18 9 38 -1 20 -9 24 -15 16 -23 -18 -18 -14
-38 6 -38 24 0 107 -80 115 -109 8 -33 -37 -79 -59 -60 -10 8 -18 9 -25 2 -13
-13 -57 6 -62 27 -1 8 3 26 10 40 17 33 16 50 -2 50 -8 0 -15 -3 -16 -7 -3
-28 -9 -47 -19 -57 -9 -8 -11 -6 -5 12 4 15 3 22 -5 20 -7 -2 -15 3 -17 10 -3
6 1 10 9 9 7 -2 10 -2 6 0 -14 8 -9 23 7 23 8 0 15 5 15 11 0 27 -34 -1 -50
-40 -13 -35 -23 -45 -44 -48 -15 -2 -33 3 -43 12 -11 12 -28 15 -61 11 -48 -5
-92 9 -92 30 0 7 -6 15 -12 17 -10 4 -10 6 0 6 7 1 15 -6 18 -14 6 -15 45 -21
57 -8 4 3 -3 14 -15 22 -24 17 -35 41 -18 41 23 0 8 30 -17 36 -16 3 -34 7
-41 10 -7 2 -16 -4 -19 -13 -4 -10 -18 -30 -31 -44 -13 -15 -24 -30 -24 -33 1
-3 -3 -18 -7 -33 -4 -16 -5 -54 -1 -85 l6 -57 -36 1 c-19 0 -43 8 -52 16 -28
23 -21 1 8 -29 l26 -27 -52 26 c-28 14 -60 39 -72 55 -21 29 -21 31 -4 41 10
6 31 21 46 34 16 12 45 29 66 38 21 9 67 47 103 84 63 65 69 69 116 72 29 2
57 -2 66 -10 9 -6 19 -9 22 -6z m-960 -50 c-3 -5 -12 2 -19 15 -20 36 -16 48
5 19 11 -13 17 -29 14 -34z m-846 -8 c-3 -7 -5 -2 -5 12 0 14 2 19 5 13 2 -7
2 -19 0 -25z m1055 14 c-7 -2 -12 -11 -13 -20 0 -13 -2 -13 -8 3 -11 26 -5 36
16 28 11 -4 13 -8 5 -11z m-338 -8 c3 -8 2 -12 -4 -9 -6 3 -10 10 -10 16 0 14
7 11 14 -7z m253 -6 c2 -16 0 -16 -13 -4 -17 18 -18 23 -1 23 7 0 14 -9 14
-19z m-730 -30 c-3 -8 -6 -5 -6 6 -1 11 2 17 5 13 3 -3 4 -12 1 -19z m773 8
c0 -3 -4 -8 -10 -11 -5 -3 -10 -1 -10 4 0 6 5 11 10 11 6 0 10 -2 10 -4z
m-785 -36 c3 -5 2 -10 -4 -10 -5 0 -13 5 -16 10 -3 6 -2 10 4 10 5 0 13 -4 16
-10z m-1235 -91 c0 -11 -4 -17 -10 -14 -5 3 -10 13 -10 21 0 8 5 14 10 14 6 0
10 -9 10 -21z m-83 -11 c-3 -8 -6 -5 -6 6 -1 11 2 17 5 13 3 -3 4 -12 1 -19z
m2102 -34 c9 6 8 14 -5 34 -9 15 -11 22 -4 15 9 -8 20 -9 37 -2 14 5 30 6 36
2 7 -4 22 -6 35 -4 12 1 22 -2 22 -8 0 -6 -8 -12 -17 -12 -10 -1 -28 -3 -40
-4 -12 -1 -20 2 -17 6 3 5 -5 9 -17 9 -18 0 -20 -3 -11 -12 17 -17 15 -23 -13
-36 -38 -18 -48 -15 -68 19 -25 45 -9 58 23 19 17 -20 32 -30 39 -26z m901 42
c0 -2 -3 -11 -6 -20 -9 -23 -34 -20 -34 4 0 13 7 20 20 20 11 0 20 -2 20 -4z
m-2863 -108 c-3 -8 -6 -5 -6 6 -1 11 2 17 5 13 3 -3 4 -12 1 -19z m1468 12
c-3 -6 -25 -10 -48 -10 -80 0 -117 -11 -132 -39 -17 -31 -20 -13 -4 23 9 20
20 26 53 28 108 8 137 7 131 -2z m9 -45 c19 -29 21 -66 4 -84 -11 -11 -10 -12
1 -6 10 6 12 1 6 -25 -5 -23 -4 -30 4 -26 6 4 11 2 11 -4 0 -17 -29 -23 -45
-10 -12 10 -15 10 -15 -1 0 -8 -9 4 -21 25 -14 27 -19 50 -16 72 4 22 1 37 -9
45 -27 22 -16 39 25 39 30 0 42 -5 55 -25z m1186 15 c0 -5 -2 -10 -4 -10 -3 0
-8 5 -11 10 -3 6 -1 10 4 10 6 0 11 -4 11 -10z m-2670 -29 c0 -6 -4 -13 -10
-16 -5 -3 -10 1 -10 9 0 9 5 16 10 16 6 0 10 -4 10 -9z m1007 -23 c-3 -8 -6
-5 -6 6 -1 11 2 17 5 13 3 -3 4 -12 1 -19z m981 -8 c0 -16 -4 -30 -9 -30 -10
0 -12 43 -2 53 10 10 10 10 11 -23z m-216 4 c30 -16 30 -16 9 -30 -24 -17 -54
-11 -81 16 -18 18 -18 19 8 23 15 2 28 5 30 6 2 0 17 -6 34 -15z m-731 -21
c13 -16 12 -17 -3 -4 -17 13 -22 21 -14 21 2 0 10 -8 17 -17z m569 -12 c1 -12
5 -11 20 8 11 13 20 19 20 14 0 -6 -8 -17 -19 -27 -14 -13 -20 -14 -28 -4 -22
28 -24 38 -9 32 9 -3 16 -14 16 -23z m-50 -6 c-7 -9 -15 -13 -18 -10 -3 2 1
11 8 20 7 9 15 13 18 10 3 -2 -1 -11 -8 -20z m-511 -33 c-1 -15 -2 -15 -6 1
-2 9 -9 14 -15 11 -7 -4 -8 -2 -4 5 10 15 26 4 25 -17z m-836 -58 c3 -4 2 -15
-4 -25 -7 -14 -6 -19 3 -19 25 0 -9 -20 -77 -45 -79 -28 -99 -26 -113 14 -8
23 -17 29 -51 34 -23 3 -60 3 -83 1 -24 -2 -37 -1 -31 2 7 3 86 14 175 24 90
10 166 18 169 19 3 0 9 -2 12 -5z m74 -9 c0 -8 -4 -15 -9 -15 -4 0 -8 7 -8 15
0 8 4 15 8 15 5 0 9 -7 9 -15z m1281 -61 c-11 -11 -23 -14 -35 -9 -17 7 -17 8
2 15 11 5 27 9 35 9 12 1 11 -2 -2 -15z m-1264 0 c12 -5 -1 -22 -55 -73 -88
-81 -111 -94 -150 -86 -38 9 -58 47 -38 71 10 12 23 15 60 10 30 -4 50 -2 54
4 4 6 14 9 22 6 8 -3 11 -1 8 4 -3 6 4 14 17 19 13 5 32 18 42 30 22 24 19 23
40 15z m-284 -44 c0 -5 8 -6 18 -3 15 6 15 5 3 -10 -14 -18 -37 -24 -26 -8 3
5 1 12 -5 16 -5 3 -10 2 -10 -3 0 -12 -30 -20 -49 -14 -9 3 -4 9 15 18 36 15
54 17 54 4z m1482 -24 c9 6 11 -10 2 -19 -8 -8 -64 21 -64 33 0 5 12 3 27 -5
15 -8 30 -12 35 -9z m28 -65 c-6 -12 -15 -21 -20 -21 -6 0 -10 -4 -10 -10 0
-18 21 -10 45 18 21 24 26 25 44 15 12 -7 30 -13 41 -13 12 0 19 -4 16 -9 -4
-6 -21 -5 -42 1 -28 7 -40 7 -50 -4 -12 -12 -8 -18 25 -43 l40 -30 -37 -37
c-20 -21 -40 -38 -45 -38 -5 0 -16 -7 -25 -16 -15 -15 -14 -16 5 -10 12 4 24
2 28 -4 7 -11 184 -14 222 -4 30 8 50 58 32 81 -12 15 -12 16 4 10 22 -8 23
29 2 81 -14 32 -14 35 -1 22 8 -8 19 -37 23 -64 8 -46 11 -50 43 -58 19 -5 65
-18 102 -29 64 -18 67 -21 74 -55 8 -44 -7 -64 -31 -40 -10 9 -25 14 -35 11
-10 -3 -35 -8 -56 -10 -22 -3 -50 -7 -64 -10 -14 -3 -42 -8 -62 -10 -21 -3
-104 -18 -185 -34 -82 -16 -186 -35 -233 -41 -47 -6 -125 -19 -175 -30 -205
-44 -364 -71 -620 -105 -60 -8 -137 -19 -170 -25 -70 -13 -193 -30 -203 -29
-4 1 -9 0 -12 -1 -3 -1 -15 -3 -27 -4 -15 -2 -19 2 -15 12 4 12 1 14 -14 8
-50 -19 -146 -36 -211 -36 -83 0 -103 6 -102 29 0 10 2 11 6 4 2 -7 11 -13 19
-13 7 0 11 6 9 13 -3 8 31 23 106 46 60 19 113 39 116 44 14 23 69 30 236 31
133 1 180 5 186 14 15 25 133 44 291 47 179 4 320 22 327 42 3 7 11 13 17 13
16 0 58 44 50 52 -3 3 30 14 73 23 86 19 107 27 103 39 -1 5 3 12 10 16 8 5 8
15 0 36 -9 26 -9 27 4 11 13 -17 15 -16 42 11 16 16 34 31 40 33 6 2 14 13 18
24 5 17 1 21 -18 23 -13 1 -37 7 -52 13 -28 11 -27 12 38 23 37 7 71 15 75 20
13 12 15 -11 3 -33z m-596 -104 c2 -15 0 -27 -5 -27 -5 0 -9 14 -9 32 0 37 7
34 14 -5z m136 3 c0 -5 -10 -10 -22 -9 -22 0 -22 1 -3 9 11 5 21 9 23 9 1 1 2
-3 2 -9z m3 -27 c-7 -2 -19 -2 -25 0 -7 3 -2 5 12 5 14 0 19 -2 13 -5z m692
-23 c14 -27 14 -30 0 -30 -12 0 -35 36 -35 56 0 15 22 -1 35 -26z m-37 -5 c8
-16 8 -26 1 -31 -14 -8 -21 1 -24 31 -4 32 8 32 23 0z m-868 -5 c0 -14 -6 -20
-22 -19 -13 0 -17 3 -10 6 6 2 12 9 12 14 0 6 -4 7 -10 4 -5 -3 -10 -1 -10 4
0 6 9 11 20 11 13 0 20 -7 20 -20z m213 3 c-7 -2 -19 -2 -25 0 -7 3 -2 5 12 5
14 0 19 -2 13 -5z m-323 -28 c0 -21 -5 -25 -30 -25 -22 0 -30 5 -30 18 0 25 9
32 37 32 18 0 23 -5 23 -25z m-121 -116 c-8 -5 -19 -9 -26 -9 -16 0 -27 58
-14 73 5 7 8 23 5 34 -4 15 -1 22 13 25 15 3 19 -6 27 -56 6 -45 5 -60 -5 -67z
m116 71 c-3 -5 -10 -10 -16 -10 -5 0 -9 5 -9 10 0 6 7 10 16 10 8 0 12 -4 9
-10z m-312 -7 c-7 -2 -21 -2 -30 0 -10 3 -4 5 12 5 17 0 24 -2 18 -5z m224
-15 c-3 -8 -6 -5 -6 6 -1 11 2 17 5 13 3 -3 4 -12 1 -19z m-278 -2 c-12 -10
-60 -16 -54 -6 3 5 18 10 32 10 15 0 24 -2 22 -4z m48 -2 c-3 -3 -12 -4 -19
-1 -8 3 -5 6 6 6 11 1 17 -2 13 -5z m3 -45 c0 -6 8 -8 19 -4 11 3 22 1 26 -5
3 -5 -1 -10 -10 -10 -9 0 -15 -6 -13 -14 2 -8 0 -15 -4 -15 -5 -1 -7 2 -5 5 1
3 -6 10 -15 15 -19 11 -25 39 -8 39 6 0 10 -5 10 -11z m-115 -9 c-3 -5 -10
-10 -16 -10 -5 0 -9 5 -9 10 0 6 7 10 16 10 8 0 12 -4 9 -10z m55 0 c0 -5 -6
-10 -14 -10 -8 0 -18 5 -21 10 -3 6 3 10 14 10 12 0 21 -4 21 -10z m130 -30
c0 -5 -4 -10 -10 -10 -5 0 -10 5 -10 10 0 6 5 10 10 10 6 0 10 -4 10 -10z m0
-40 c0 -5 -4 -10 -10 -10 -5 0 -10 5 -10 10 0 6 5 10 10 10 6 0 10 -4 10 -10z
m-40 -10 c0 -5 -4 -10 -10 -10 -5 0 -10 5 -10 10 0 6 5 10 10 10 6 0 10 -4 10
-10z m1233 -317 c-7 -2 -19 -2 -25 0 -7 3 -2 5 12 5 14 0 19 -2 13 -5z m-58
-13 c-11 -5 -29 -8 -40 -8 -16 0 -15 2 5 8 34 11 60 11 35 0z m483 -660 c-1
-39 -3 -51 -5 -30 -3 19 -10 38 -17 42 -13 8 -14 31 -1 61 14 33 25 -3 23 -73z
m1439 4 c-3 -3 -12 -4 -19 -1 -8 3 -5 6 6 6 11 1 17 -2 13 -5z m-417 -48 c0
-3 -4 -8 -10 -11 -5 -3 -10 -1 -10 4 0 6 5 11 10 11 6 0 10 -2 10 -4z m464
-42 c3 -8 2 -12 -4 -9 -6 3 -10 10 -10 16 0 14 7 11 14 -7z m-384 -20 c0 -2
-9 0 -20 6 -11 6 -20 13 -20 16 0 2 9 0 20 -6 11 -6 20 -13 20 -16z m342 -2
c9 -9 9 -12 0 -12 -7 0 -12 6 -12 13 0 9 -2 9 -9 -1 -7 -11 -9 -11 -14 1 -7
18 17 17 35 -1z m-417 -33 c-4 -5 -12 -9 -18 -8 -9 0 -8 2 1 6 6 2 9 10 6 15
-4 7 -2 8 5 4 6 -4 9 -12 6 -17z m95 17 c0 -3 -4 -8 -10 -11 -5 -3 -10 -1 -10
4 0 6 5 11 10 11 6 0 10 -2 10 -4z m394 -2 c9 -3 16 -14 16 -23 0 -14 -2 -14
-10 -1 -9 13 -11 13 -20 0 -14 -22 -6 -35 20 -32 13 1 21 -1 17 -4 -4 -4 1
-13 11 -20 9 -8 12 -14 5 -14 -6 0 -15 5 -18 11 -4 6 -13 8 -20 5 -21 -8 -36
18 -29 53 4 17 8 31 9 31 2 0 10 -3 19 -6z m-446 -29 c6 -14 10 -25 8 -25 -2
0 -11 11 -20 25 -9 14 -13 25 -8 25 5 0 14 -11 20 -25z m232 11 c0 -2 -7 -9
-15 -16 -13 -11 -14 -10 -9 4 5 14 24 23 24 12z m51 -14 c-7 -2 -18 1 -23 6
-8 8 -4 9 13 5 13 -4 18 -8 10 -11z m-366 -1 c3 -5 2 -12 -3 -15 -5 -3 -9 1
-9 9 0 17 3 19 12 6z m575 -7 c0 -8 -5 -12 -10 -9 -6 4 -8 11 -5 16 9 14 15
11 15 -7z m-702 -18 c0 -16 -5 -23 -14 -19 -10 4 -11 9 -1 24 15 24 15 24 15
-5z m196 8 c3 -8 2 -12 -4 -9 -6 3 -10 10 -10 16 0 14 7 11 14 -7z m72 1 c21
-16 21 -16 -18 -19 -15 -2 -25 1 -22 6 3 4 10 6 15 3 5 -4 9 -2 9 4 0 5 -6 12
-12 14 -7 3 -8 6 -2 6 5 1 19 -6 30 -14z m54 11 c0 -2 -7 -9 -15 -16 -13 -11
-14 -10 -9 4 5 14 24 23 24 12z m247 -12 c-3 -3 -12 -4 -19 -1 -8 3 -5 6 6 6
11 1 17 -2 13 -5z m-540 -26 c-3 -8 -6 -5 -6 6 -1 11 2 17 5 13 3 -3 4 -12 1
-19z m-157 -3 c11 -13 10 -14 -4 -9 -9 3 -16 10 -16 15 0 13 6 11 20 -6z m161
-28 c-13 -12 -20 -16 -16 -8 6 11 4 13 -9 8 -11 -4 -15 -3 -11 4 4 6 13 8 21
5 8 -3 17 1 21 10 3 8 8 12 11 9 3 -3 -5 -16 -17 -28z m172 16 c-7 -17 -20
-17 -20 0 0 8 6 14 13 14 7 0 10 -6 7 -14z m291 10 c-5 -5 -12 -12 -16 -18 -4
-6 -8 -2 -8 8 0 9 7 17 17 17 9 0 12 -3 7 -7z m-61 -28 c11 -16 13 -23 5 -20
-15 6 -42 45 -31 45 5 0 16 -12 26 -25z m-347 8 c-10 -11 -37 -12 -30 -2 3 5
12 9 21 9 9 0 13 -3 9 -7z m84 -14 c0 -6 -4 -7 -10 -4 -5 3 -10 11 -10 16 0 6
5 7 10 4 6 -3 10 -11 10 -16z m504 13 c3 -5 -1 -9 -9 -9 -8 0 -12 4 -9 9 3 4
7 8 9 8 2 0 6 -4 9 -8z m-781 -22 c7 -26 1 -26 -13 0 -6 11 -7 20 -2 20 6 0
12 -9 15 -20z m357 5 c0 -9 -41 -11 -47 -3 -3 7 -1 8 5 4 7 -4 12 -3 12 3 0 6
7 8 15 5 8 -4 15 -7 15 -9z m303 -10 c-7 -21 -13 -19 -13 6 0 11 4 18 10 14 5
-3 7 -12 3 -20z m267 15 c0 -5 -2 -10 -4 -10 -3 0 -8 5 -11 10 -3 6 -1 10 4
10 6 0 11 -4 11 -10z m-326 -15 c3 -8 1 -15 -4 -15 -6 0 -10 7 -10 15 0 8 2
15 4 15 2 0 6 -7 10 -15z m134 -10 c-3 -3 -9 2 -12 12 -6 14 -5 15 5 6 7 -7
10 -15 7 -18z m-498 -5 c0 -5 -7 -7 -15 -4 -8 4 -12 10 -9 15 6 11 24 2 24
-11z m147 -16 c-3 -3 -12 -4 -19 -1 -8 3 -5 6 6 6 11 1 17 -2 13 -5z"/>
<path d="M2997 2380 c-3 -11 -1 -20 4 -20 5 0 9 2 9 4 0 2 3 11 6 20 3 9 2 16
-4 16 -5 0 -12 -9 -15 -20z"/>
<path d="M2880 2365 c0 -21 28 -31 43 -16 9 9 8 14 -3 21 -22 14 -40 12 -40
-5z"/>
<path d="M3021 2364 c-7 -9 -22 -14 -31 -11 -15 4 -17 1 -11 -17 6 -15 18 -21
42 -23 19 -1 39 3 45 8 6 5 14 5 19 1 4 -4 0 8 -9 26 -18 35 -34 40 -55 16z"/>
<path d="M1625 2030 c-3 -5 -3 -10 1 -10 4 0 0 -6 -9 -12 -22 -17 -10 -65 21
-86 20 -13 21 -13 16 10 -3 12 -7 32 -9 43 -2 11 -4 22 -5 25 -1 3 -2 13 -1
23 2 19 -4 22 -14 7z m10 -69 c3 -5 2 -12 -3 -15 -5 -3 -9 1 -9 9 0 17 3 19
12 6z"/>
<path d="M244 1805 c22 -17 40 -20 32 -6 -3 5 -16 11 -28 14 -22 6 -22 5 -4
-8z"/>
<path d="M1996 1514 c-4 -9 -4 -19 -1 -22 2 -3 7 3 11 12 4 9 4 19 1 22 -2 3
-7 -3 -11 -12z"/>
<path d="M1983 2962 c1 -32 4 -37 26 -39 25 -1 25 -1 6 13 -19 14 -19 14 1 15
18 0 18 1 1 8 -10 4 -18 10 -18 14 2 20 0 27 -8 27 -6 0 -9 -17 -8 -38z"/>
<path d="M2018 2993 c6 -2 18 -2 25 0 6 3 1 5 -13 5 -14 0 -19 -2 -12 -5z"/>
<path d="M1914 2927 c1 -20 4 -23 14 -15 7 6 9 14 5 17 -4 4 -11 10 -14 14 -4
5 -6 -3 -5 -16z"/>
<path d="M1870 2902 c0 -5 7 -13 16 -16 10 -4 14 -1 12 6 -5 15 -28 23 -28 10z"/>
<path d="M1990 2890 c12 -8 10 -10 -7 -10 -13 0 -23 -4 -23 -10 0 -5 6 -7 14
-4 8 3 17 1 21 -5 3 -6 12 -11 18 -11 8 0 8 3 -2 9 -9 6 -10 11 -2 15 18 11
13 22 -11 23 -18 2 -20 0 -8 -7z"/>
<path d="M1823 2875 c-3 -9 -3 -19 1 -22 3 -4 6 1 6 10 0 8 6 18 13 20 9 4 9
6 -1 6 -7 1 -15 -6 -19 -14z"/>
<path d="M1865 2871 c-3 -5 -1 -12 5 -16 5 -3 10 1 10 9 0 18 -6 21 -15 7z"/>
<path d="M1955 2831 c-3 -11 -14 -22 -23 -24 -16 -4 -16 -5 0 -6 9 0 18 -11
20 -23 2 -16 10 -23 26 -24 12 -1 21 1 18 3 -2 2 0 21 5 41 5 25 4 39 -4 44
-20 13 -35 9 -42 -11z m33 -13 c-2 -6 -10 -14 -16 -16 -7 -2 -10 2 -6 12 7 18
28 22 22 4z"/>
<path d="M1920 2776 c0 -15 -23 -25 -67 -29 -12 0 -19 -5 -16 -10 4 -6 71 -4
89 2 8 3 10 42 3 47 -5 3 -9 -2 -9 -10z"/>
<path d="M1826 2772 c-2 -4 7 -9 20 -10 15 -1 22 2 19 8 -7 12 -32 13 -39 2z"/>
<path d="M1665 2730 c-3 -5 -2 -10 4 -10 5 0 13 5 16 10 3 6 2 10 -4 10 -5 0
-13 -4 -16 -10z"/>
<path d="M1700 2720 c0 -5 5 -10 10 -10 6 0 10 5 10 10 0 6 -4 10 -10 10 -5 0
-10 -4 -10 -10z"/>
<path d="M1853 2705 c0 -8 4 -12 9 -9 4 3 8 9 8 15 0 5 -4 9 -8 9 -5 0 -9 -7
-9 -15z"/>
<path d="M1405 1900 c3 -5 10 -10 16 -10 5 0 9 5 9 10 0 6 -7 10 -16 10 -8 0
-12 -4 -9 -10z"/>
<path d="M1312 1544 c0 -27 4 -34 17 -31 9 2 14 10 12 18 -2 8 -3 22 -3 32 0
9 -5 17 -13 17 -8 0 -13 -13 -13 -36z"/>
<path d="M245 1350 l-50 -7 53 -1 c29 -1 52 2 52 8 0 6 -1 9 -2 8 -2 0 -25 -4
-53 -8z"/>
</g>
</svg>
